<?xml version="1.0" encoding="utf-8"?>
<svg version="1.1" id="Layer_1" xmlns="http://www.w3.org/2000/svg" xmlns:xlink="http://www.w3.org/1999/xlink" x="0px" y="0px"
	 width="1167.487px" height="293.422px" viewBox="0 0 1167.487 293.422" enable-background="new 0 0 1167.487 293.422"
	 xml:space="preserve">
<g>
	<path fill="#F9B61F" d="M293.425,146.714c0,81.022-65.684,146.708-146.713,146.708C65.688,293.422,0,227.736,0,146.714
		C0,65.689,65.688,0,146.712,0C227.741,0,293.425,65.689,293.425,146.714"/>
	<path fill="#FFFFFF" d="M236.727,120.479c-4.334,0-7.846,3.629-7.846,8.081c0,2.342,0.938,4.332,2.34,5.853
		c-8.667,8.786-25.064,24.131-31.621,21.205c-5.857-2.579-7.148-14.178-7.384-22.373h0.119c4.334,0,7.848-3.633,7.848-8.197
		c0-4.454-3.514-8.085-7.848-8.085c-4.332,0-7.85,3.631-7.85,8.085c0,3.632,2.229,6.674,5.277,7.726
		c-3.515,8.081-11.014,18.859-24.484,12.886c-10.421-4.686-14.994-24.48-16.985-38.534c3.634-0.821,6.325-4.101,6.325-8.082
		c0-4.453-3.509-8.201-7.847-8.201c-4.336,0-7.846,3.748-7.846,8.201c0,3.981,2.691,7.261,6.323,8.082
		c-1.99,14.054-6.675,33.848-17.1,38.534c-13.469,5.973-20.85-4.805-24.361-12.886c3.043-1.052,5.27-4.094,5.27-7.726
		c0-4.454-3.514-8.085-7.849-8.085c-4.451,0-7.966,3.631-7.966,8.085c0,4.564,3.515,8.197,7.966,8.197h0.118
		c-0.235,8.195-1.523,19.794-7.38,22.373c-6.678,2.926-23.073-12.419-31.626-21.205c1.406-1.521,2.345-3.511,2.345-5.853
		c0-4.452-3.515-8.081-7.85-8.081c-4.331,0-7.963,3.629-7.963,8.081c0,4.567,3.632,8.197,7.963,8.197
		c1.172,0,2.342-0.236,3.397-0.82c7.027,15.578,22.606,51.888,21.201,66.639c13.354-8.666,37.833-14.404,65.828-14.404
		c27.29,0,51.305,5.502,64.893,13.824c-1.059-15.115,14.17-50.601,21.195-66.059c1.059,0.584,2.228,0.82,3.398,0.82
		c4.334,0,7.85-3.63,7.85-8.197C244.577,124.107,241.061,120.479,236.727,120.479"/>
	<path fill="#FFFFFF" d="M459.973,161.624c-5.845,0.895-11.584,4.606-17.219,11.135c-5.634,6.527-8.452,13.125-8.452,19.791v51.333
		h-8.246V154.41h8.246v19.378c3.436-9,10.478-15.702,21.134-20.1L459.973,161.624z"/>
	<path fill="#FFFFFF" d="M477.862,125.134c1.613,1.58,2.422,3.47,2.422,5.668c0,2.336-0.809,4.294-2.422,5.874
		c-1.616,1.584-3.523,2.374-5.725,2.374c-2.266,0-4.21-0.79-5.82-2.374c-1.618-1.58-2.428-3.538-2.428-5.874
		c0-2.198,0.81-4.088,2.428-5.668c1.61-1.58,3.554-2.375,5.82-2.375C474.339,122.759,476.246,123.554,477.862,125.134
		 M476.161,243.884h-8.145v-89.475h8.145V243.884z"/>
	<path fill="#FFFFFF" d="M530.08,245.122c-11.202,0-20.1-3.3-26.699-9.898c-6.599-6.597-10-14.945-10.208-25.049v-55.87h8.249
		v55.149c0,7.56,2.749,14.022,8.245,19.379c5.429,5.432,12.197,8.146,20.309,8.146c7.561,0,14.068-2.697,19.538-8.094
		c5.461-5.395,8.195-11.871,8.195-19.431v-55.149h8.243v55.87c-0.203,10.104-3.603,18.452-10.203,25.049
		C549.15,241.822,540.593,245.122,530.08,245.122"/>
	<path fill="#FFFFFF" d="M589.073,174.408v69.475h-8.249v-89.474h8.249v5.772c7.419-7.424,16.079-11.136,25.976-11.136
		c10.584,0,19.188,3.32,25.823,9.949c6.632,6.634,10.014,14.965,10.151,24.997v59.892h-8.144v-59.066
		c0-7.628-2.748-14.123-8.244-19.48c-5.5-5.36-12.03-8.041-19.587-8.041c-7.492,0-13.986,2.647-19.484,7.938
		C592.611,168.187,590.443,171.244,589.073,174.408"/>
	<path fill="#F9B61F" d="M652.642,111.685c-1.768,0-3.203,1.478-3.203,3.295c0,0.955,0.389,1.768,0.959,2.389
		c-3.534,3.584-10.227,9.842-12.901,8.647c-2.389-1.05-2.911-5.781-3.01-9.123h0.049c1.769,0,3.2-1.482,3.2-3.345
		c0-1.818-1.432-3.3-3.2-3.3s-3.204,1.482-3.204,3.3c0,1.48,0.912,2.723,2.155,3.151c-1.435,3.297-4.493,7.692-9.989,5.256
		c-4.25-1.912-6.113-9.985-6.927-15.716c1.481-0.34,2.581-1.677,2.581-3.3c0-1.815-1.437-3.346-3.202-3.346
		c-1.768,0-3.204,1.531-3.204,3.346c0,1.623,1.101,2.96,2.582,3.3c-0.813,5.731-2.725,13.804-6.979,15.716
		c-5.492,2.436-8.502-1.959-9.934-5.256c1.24-0.428,2.146-1.671,2.146-3.151c0-1.818-1.432-3.3-3.198-3.3
		c-1.817,0-3.252,1.482-3.252,3.3c0,1.863,1.435,3.345,3.252,3.345h0.049c-0.098,3.342-0.627,8.073-3.015,9.123
		c-2.722,1.195-9.41-5.063-12.898-8.647c0.575-0.621,0.954-1.434,0.954-2.389c0-1.817-1.431-3.295-3.202-3.295
		c-1.766,0-3.247,1.478-3.247,3.295c0,1.863,1.481,3.344,3.247,3.344c0.481,0,0.959-0.095,1.389-0.336
		c2.865,6.354,9.222,21.169,8.646,27.186c5.45-3.534,15.435-5.874,26.854-5.874c11.13,0,20.927,2.246,26.47,5.636
		c-0.436-6.163,5.781-20.64,8.645-26.948c0.436,0.241,0.909,0.336,1.387,0.336c1.771,0,3.202-1.481,3.202-3.344
		C655.844,113.163,654.412,111.685,652.642,111.685"/>
	<path fill="#FFFFFF" d="M676.68,162.658v81.225h-8.248v-81.225h-9.07v-8.249h9.07v-24.225c0.409-6.734,2.989-12.539,7.732-17.422
		c5.015-4.603,10.754-6.908,17.216-6.908c3.437,0,7.039,0.656,10.82,1.961l-2.576,7.318c-2.541-1.098-5.016-1.647-7.418-1.647
		c-4.267,0-8.319,1.718-12.167,5.151c-3.366,3.368-5.156,7.423-5.359,12.166v23.606h18.245v8.249H676.68z"/>
	<path fill="#FFFFFF" d="M706.678,191.825c-0.206,1.444-0.307,2.989-0.307,4.639c0,11.41,4.035,21.135,12.114,29.174
		c8.071,8.042,17.816,12.063,29.228,12.063c11.401,0,21.159-4.057,29.269-12.163c1.371-1.377,2.681-2.817,3.916-4.332l8.766,3.092
		c-1.033,1.72-3.197,4.195-6.498,7.423c-9.758,9.826-21.575,14.741-35.452,14.741c-13.751,0-25.518-4.897-35.311-14.69
		s-14.691-21.562-14.691-35.308c0-13.881,4.898-25.7,14.691-35.455c9.793-9.761,21.56-14.641,35.311-14.641
		c13.877,0,25.694,4.88,35.452,14.641c8.594,8.656,12.89,18.929,12.89,30.816H706.678z M708.228,183.477h78.546
		c-1.923-6.25-5.188-11.681-9.792-16.284c-8.109-8.11-17.867-12.166-29.269-12.166c-11.411,0-21.171,4.056-29.282,12.166
		C713.622,172.068,710.217,177.497,708.228,183.477"/>
	<path fill="#FFFFFF" d="M817.658,125.134c1.614,1.58,2.42,3.47,2.42,5.668c0,2.336-0.806,4.294-2.42,5.874
		c-1.616,1.584-3.527,2.374-5.729,2.374c-2.267,0-4.207-0.79-5.82-2.374c-1.619-1.58-2.423-3.538-2.423-5.874
		c0-2.198,0.804-4.088,2.423-5.668c1.613-1.58,3.554-2.375,5.82-2.375C814.131,122.759,816.042,123.554,817.658,125.134
		 M815.957,243.884h-8.147v-89.475h8.147V243.884z"/>
	<path fill="#FFFFFF" d="M947.05,222.339l8.66,3.198c-1.584,2.129-3.37,4.19-5.364,6.184c-9.758,9.826-21.579,14.741-35.46,14.741
		c-13.745,0-25.513-4.897-35.31-14.69c-9.794-9.793-14.69-21.597-14.69-35.409c0-13.813,4.896-25.6,14.69-35.354
		c9.797-9.761,21.564-14.641,35.31-14.641c13.881,0,25.702,4.88,35.46,14.641c1.994,1.993,3.78,4.052,5.364,6.185l-8.66,3.195
		c-0.896-1.1-1.856-2.199-2.889-3.301c-8.11-8.039-17.869-12.061-29.275-12.061c-11.341,0-21.048,4.04-29.126,12.116
		c-8.075,8.073-12.109,17.812-12.109,29.221s4.034,21.152,12.109,29.226c8.078,8.077,17.785,12.113,29.126,12.113
		c11.406,0,21.165-4.057,29.275-12.164C945.193,224.505,946.153,223.44,947.05,222.339"/>
	<path fill="#FFFFFF" d="M1009.759,146.367c13.883,0,25.68,4.88,35.411,14.641c9.722,9.755,14.586,21.577,14.586,35.456
		c0,13.746-4.864,25.515-14.586,35.308c-9.731,9.793-21.528,14.691-35.411,14.691c-13.748,0-25.515-4.898-35.307-14.691
		c-9.798-9.793-14.693-21.562-14.693-35.308c0-13.879,4.896-25.7,14.693-35.456C984.244,151.248,996.011,146.367,1009.759,146.367
		 M980.534,167.192c-8.077,8.107-12.111,17.869-12.111,29.271c0,11.41,4.034,21.135,12.111,29.174
		c8.072,8.042,17.817,12.063,29.225,12.063c11.404,0,21.146-4.021,29.227-12.063c8.072-8.039,12.11-17.764,12.11-29.174
		c0-11.402-4.038-21.164-12.11-29.271c-8.081-8.109-17.822-12.166-29.227-12.166C998.352,155.026,988.606,159.083,980.534,167.192"
		/>
	<path fill="#FFFFFF" d="M1069.555,154.409h8.25v2.164c5.086-4.947,11.161-7.419,18.244-7.419c7.354,0,13.608,2.573,18.761,7.728
		c1.376,1.376,2.582,2.886,3.607,4.536c1.099-1.578,2.369-3.091,3.816-4.536c5.156-5.155,11.404-7.728,18.758-7.728
		c7.355,0,13.611,2.573,18.763,7.728c4.885,5.019,7.459,11,7.733,17.935v69.065h-8.248v-69.065h0.104
		c-0.21-4.74-1.994-8.762-5.364-12.057c-3.643-3.575-7.971-5.362-12.988-5.362c-5.083,0-9.43,1.787-13.041,5.362
		c-3.606,3.57-5.407,8.038-5.407,13.397v67.726h-8.148v-69.065h0.107c-0.278-4.74-2.101-8.762-5.468-12.057
		c-3.643-3.575-7.969-5.362-12.985-5.362c-5.021,0-9.315,1.787-12.888,5.362c-3.159,3.089-4.95,6.87-5.356,11.336v69.786h-8.25
		V154.409z"/>
	<path fill="#F9B61F" d="M856.832,237.463c0,5.726-4.644,10.364-10.363,10.364c-5.718,0-10.361-4.639-10.361-10.364
		c0-5.719,4.644-10.358,10.361-10.358C852.188,227.104,856.832,231.744,856.832,237.463"/>
	<polygon fill="#FFFFFF" points="392.65,154.409 392.65,116.368 400.795,116.368 400.795,154.409 419.042,154.409 419.042,162.658 
		400.795,162.658 400.795,243.883 392.65,243.883 392.65,162.658 374.403,162.658 374.403,154.409 	"/>
</g>
</svg>
