<?xml version="1.0" encoding="UTF-8"?>
<svg width="52px" height="68px" viewBox="0 0 52 68" version="1.1" xmlns="http://www.w3.org/2000/svg" xmlns:xlink="http://www.w3.org/1999/xlink">
    <!-- Generator: Sketch 42 (36781) - http://www.bohemiancoding.com/sketch -->
    <title>icon/application--start</title>
    <desc>Created with Sketch.</desc>
    <defs></defs>
    <g id="Symbols" stroke="none" stroke-width="1" fill="none" fill-rule="evenodd">
        <g id="icon/application--start" fill-rule="nonzero" fill="#000000">
            <g id="Shape">
                <path d="M7.56613757,0 C3.38758677,0 0,3.3713003 0,7.5297619 L0,55.7202456 C0,59.8787072 3.38758677,63.2500075 7.56613757,63.2500075 L31.0448082,63.2500075 C33.117718,65.9857206 36.3994092,67.7678647 40.1005291,67.7678647 C46.3595407,67.7678647 51.4497354,62.7021421 51.4497354,56.4732218 C51.4497354,52.7898882 49.658982,49.5240046 46.9100529,47.4610004 L46.9100529,7.5297619 C46.9100529,3.3713003 43.5224661,0 39.3439153,0 L7.56613757,0 Z M7.56613757,1.50595238 L39.3439153,1.50595238 C42.7103169,1.50595238 45.3968254,4.17954494 45.3968254,7.5297619 L45.3968254,46.4962873 C43.8155026,45.6631191 42.0112739,45.178579 40.1005291,45.178579 C33.8415175,45.178579 28.7513228,50.2443016 28.7513228,56.4732218 C28.7513228,58.3747879 29.2381961,60.1703349 30.0753968,61.7440551 L7.56613757,61.7440551 C4.19973598,61.7440551 1.51322751,59.0704626 1.51322751,55.7202456 L1.51322751,7.5297619 C1.51322751,4.17954494 4.19973598,1.50595238 7.56613757,1.50595238 Z M8.32275132,12.8005952 C7.90488868,12.8005952 7.56613757,13.1377027 7.56613757,13.5535714 C7.56613757,13.9694402 7.90488868,14.3065476 8.32275132,14.3065476 L38.5873016,14.3065476 C39.0051642,14.3065476 39.3439153,13.9694402 39.3439153,13.5535714 C39.3439153,13.1377027 39.0051642,12.8005952 38.5873016,12.8005952 L8.32275132,12.8005952 Z M8.32275132,24.8482143 C7.90488868,24.8482143 7.56613757,25.1853217 7.56613757,25.6011905 C7.56613757,26.0170592 7.90488868,26.3541667 8.32275132,26.3541667 L38.5873016,26.3541667 C39.0051642,26.3541667 39.3439153,26.0170592 39.3439153,25.6011905 C39.3439153,25.1853217 39.0051642,24.8482143 38.5873016,24.8482143 L8.32275132,24.8482143 Z M8.32275132,36.8958409 C7.90488868,36.8958409 7.56613757,37.2329483 7.56613757,37.6488171 C7.56613757,38.0646858 7.90488868,38.4017932 8.32275132,38.4017932 L38.5873016,38.4017932 C39.0051642,38.4017932 39.3439153,38.0646858 39.3439153,37.6488171 C39.3439153,37.2329483 39.0051642,36.8958409 38.5873016,36.8958409 L8.32275132,36.8958409 Z M40.1005291,46.6845313 C45.5417926,46.6845313 49.9365079,51.0581935 49.9365079,56.4732218 C49.9365079,61.8883254 45.5417926,66.2619123 40.1005291,66.2619123 C34.6592656,66.2619123 30.2645503,61.8883254 30.2645503,56.4732218 C30.2645503,51.0581935 34.6592656,46.6845313 40.1005291,46.6845313 Z M8.32275132,48.9434599 C7.90488868,48.9434599 7.56613757,49.2805674 7.56613757,49.6964361 C7.56613757,50.1123049 7.90488868,50.4494123 8.32275132,50.4494123 L23.4550265,50.4494123 C23.8728891,50.4494123 24.2116402,50.1123049 24.2116402,49.6964361 C24.2116402,49.2805674 23.8728891,48.9434599 23.4550265,48.9434599 L8.32275132,48.9434599 Z M40.1005291,50.4494123 C39.6826513,50.4494123 39.3439153,50.7865197 39.3439153,51.2023885 L39.3439153,55.7202456 L34.8042328,55.7202456 C34.3863702,55.7202456 34.047619,56.0573531 34.047619,56.4732218 C34.047619,56.8890906 34.3863702,57.226198 34.8042328,57.226198 L39.3439153,57.226198 L39.3439153,61.7440551 C39.3439153,62.1599239 39.6826513,62.4970313 40.1005291,62.4970313 C40.5184069,62.4970313 40.8571429,62.1599239 40.8571429,61.7440551 L40.8571429,57.226198 L45.3968254,57.226198 C45.814688,57.226198 46.1534392,56.8890906 46.1534392,56.4732218 C46.1534392,56.0573531 45.814688,55.7202456 45.3968254,55.7202456 L40.8571429,55.7202456 L40.8571429,51.2023885 C40.8571429,50.7865197 40.5184069,50.4494123 40.1005291,50.4494123 Z"></path>
            </g>
        </g>
    </g>
</svg>