<?xml version="1.0" encoding="UTF-8"?>
<svg width="52px" height="70px" viewBox="0 0 52 70" version="1.1" xmlns="http://www.w3.org/2000/svg" xmlns:xlink="http://www.w3.org/1999/xlink">
    <!-- Generator: Sketch 42 (36781) - http://www.bohemiancoding.com/sketch -->
    <title>icon/application--filled</title>
    <desc>Created with Sketch.</desc>
    <defs></defs>
    <g id="Symbols" stroke="none" stroke-width="1" fill="none" fill-rule="evenodd">
        <g id="icon/application--filled" fill-rule="nonzero" fill="#000000">
            <g transform="translate(0.190476, 0.485958)" id="Shape">
                <path d="M7.61904762,0 C3.41127619,0 0,3.41127619 0,7.61904762 L0,56.3809905 C0,60.5887619 3.41127619,64.0000381 7.61904762,64.0000381 L31.2618667,64.0000381 C33.3493333,66.7681905 36.6539429,68.5714667 40.3809524,68.5714667 C46.6837333,68.5714667 51.8095238,63.4456762 51.8095238,57.1428952 C51.8095238,53.4158857 50.0062476,50.1112762 47.2380952,48.0238095 L47.2380952,7.61904762 C47.2380952,3.41127619 43.826819,0 39.6190476,0 L7.61904762,0 Z M7.61904762,1.52380952 L39.6190476,1.52380952 C43.0089905,1.52380952 45.7142857,4.22910476 45.7142857,7.61904762 L45.7142857,47.0476571 C44.1219048,46.2046095 42.3050667,45.7143238 40.3809524,45.7143238 C34.0781714,45.7143238 28.952381,50.8401143 28.952381,57.1428952 C28.952381,59.0670095 29.4426667,60.8838476 30.2857143,62.4762286 L7.61904762,62.4762286 C4.22910476,62.4762286 1.52380952,59.7709333 1.52380952,56.3809905 L1.52380952,7.61904762 C1.52380952,4.22910476 4.22910476,1.52380952 7.61904762,1.52380952 Z M8.38095238,12.952381 C7.96015238,12.952381 7.61904762,13.2934857 7.61904762,13.7142857 C7.61904762,14.1350857 7.96015238,14.4761905 8.38095238,14.4761905 L38.8571429,14.4761905 C39.2779429,14.4761905 39.6190476,14.1350857 39.6190476,13.7142857 C39.6190476,13.2934857 39.2779429,12.952381 38.8571429,12.952381 L8.38095238,12.952381 Z M8.38095238,25.1428571 C7.96015238,25.1428571 7.61904762,25.4839619 7.61904762,25.9047619 C7.61904762,26.3255619 7.96015238,26.6666667 8.38095238,26.6666667 L38.8571429,26.6666667 C39.2779429,26.6666667 39.6190476,26.3255619 39.6190476,25.9047619 C39.6190476,25.4839619 39.2779429,25.1428571 38.8571429,25.1428571 L8.38095238,25.1428571 Z M8.38095238,37.3333714 C7.96015238,37.3333714 7.61904762,37.6744762 7.61904762,38.0952762 C7.61904762,38.5160762 7.96015238,38.857181 8.38095238,38.857181 L38.8571429,38.857181 C39.2779429,38.857181 39.6190476,38.5160762 39.6190476,38.0952762 C39.6190476,37.6744762 39.2779429,37.3333714 38.8571429,37.3333714 L8.38095238,37.3333714 Z M40.3809524,47.2381333 C45.8602667,47.2381333 50.2857143,51.663581 50.2857143,57.1428952 C50.2857143,62.6221333 45.8602667,67.0476571 40.3809524,67.0476571 C34.9017143,67.0476571 30.4761905,62.6221333 30.4761905,57.1428952 C30.4761905,51.663581 34.9017143,47.2381333 40.3809524,47.2381333 Z M8.38095238,49.5238476 C7.96015238,49.5238476 7.61904762,49.8649524 7.61904762,50.2857524 C7.61904762,50.7065524 7.96015238,51.0476571 8.38095238,51.0476571 L23.6190476,51.0476571 C24.0398476,51.0476571 24.3809524,50.7065524 24.3809524,50.2857524 C24.3809524,49.8649524 24.0398476,49.5238476 23.6190476,49.5238476 L8.38095238,49.5238476 Z M45.5714286,53.3333714 C45.3881143,53.3608 45.2326095,53.4515429 45.1190857,53.6190857 L39.4761905,60.6667048 L34.7381333,57.2857524 C34.4139429,57.0488762 33.9035429,57.1282667 33.6666667,57.452381 C33.4298667,57.7765714 33.509181,58.2870476 33.8332952,58.5238476 L39.1666286,62.3333714 C39.4810667,62.5632381 39.9728,62.4961143 40.2142476,62.1905143 L46.3094857,54.5714667 C46.5476571,54.2398095 46.584381,53.8137524 46.1667048,53.4762286 C45.9658667,53.3428952 45.7547429,53.3061714 45.5714286,53.3333714 Z"></path>
            </g>
        </g>
    </g>
</svg>