<?xml version="1.0" encoding="UTF-8"?>
<svg width="65px" height="70px" viewBox="0 0 65 70" version="1.1" xmlns="http://www.w3.org/2000/svg" xmlns:xlink="http://www.w3.org/1999/xlink">
    <!-- Generator: Sketch 42 (36781) - http://www.bohemiancoding.com/sketch -->
    <title>icon/credit card</title>
    <desc>Created with Sketch.</desc>
    <defs></defs>
    <g id="Symbols" stroke="none" stroke-width="1" fill="none" fill-rule="evenodd">
        <g id="icon/credit-card" fill-rule="nonzero" fill="#000000">
            <g transform="translate(0.000000, 9.000000)">
                <path d="M45,52.8 L3.3,52.8 C1.7,52.8 0.5,51.5 0.5,50 L0.5,23.7 C0.5,22.2 1.8,20.9 3.3,20.9 L18.2,20.9 C18.8,20.9 19.2,21.3 19.2,21.9 L19.2,29.3 C19.2,29.7 19.6,30.1 20,30.1 L46.8,30.1 C47.4,30.1 47.8,30.5 47.8,31.1 L47.8,50 C47.8,51.5 46.5,52.8 45,52.8 Z M3.3,22.9 C2.9,22.9 2.5,23.3 2.5,23.7 L2.5,50 C2.5,50.4 2.9,50.8 3.3,50.8 L45,50.8 C45.4,50.8 45.8,50.4 45.8,50 L45.8,32.1 L20,32.1 C18.5,32.1 17.2,30.8 17.2,29.3 L17.2,22.9 L3.3,22.9 L3.3,22.9 Z" id="Shape"></path>
                <path d="M61.7,32.1 L20,32.1 C18.5,32.1 17.2,30.8 17.2,29.3 L17.2,3 C17.2,1.5 18.5,0.2 20,0.2 L61.7,0.2 C63.3,0.2 64.5,1.5 64.5,3 L64.5,29.3 C64.5,30.8 63.2,32.1 61.7,32.1 Z M20,2.2 C19.6,2.2 19.2,2.6 19.2,3 L19.2,29.3 C19.2,29.7 19.6,30.1 20,30.1 L61.7,30.1 C62.1,30.1 62.5,29.7 62.5,29.3 L62.5,3 C62.5,2.6 62.1,2.2 61.7,2.2 L20,2.2 Z" id="Shape"></path>
                <path d="M12.6,34.5 L7.1,34.5 C6.2,34.5 5.5,33.8 5.5,32.9 L5.5,27.4 C5.5,26.5 6.2,25.8 7.1,25.8 L12.6,25.8 C13.5,25.8 14.2,26.5 14.2,27.4 L14.2,32.9 C14.1,33.8 13.4,34.5 12.6,34.5 Z M7.5,32.5 L12.1,32.5 L12.1,27.9 L7.5,27.9 L7.5,32.5 Z" id="Shape"></path>
                <path d="M63.5,11.6 L18.2,11.6 C17.6,11.6 17.2,11.2 17.2,10.6 L17.2,5.8 C17.2,5.2 17.6,4.8 18.2,4.8 L63.5,4.8 C64.1,4.8 64.5,5.2 64.5,5.8 L64.5,10.6 C64.5,11.1 64.1,11.6 63.5,11.6 Z M19.2,9.6 L62.5,9.6 L62.5,6.8 L19.2,6.8 L19.2,9.6 Z" id="Shape"></path>
                <path d="M51.5,26.4 C49.1,26.4 47.2,24.5 47.2,22.1 C47.2,19.7 49.1,17.8 51.5,17.8 C52.5,17.8 53.5,18.2 54.3,18.8 C55.3,19.6 55.8,20.8 55.8,22.1 C55.8,23.4 55.2,24.6 54.3,25.4 C53.5,26.1 52.5,26.4 51.5,26.4 Z M51.5,19.8 C50.2,19.8 49.2,20.8 49.2,22.1 C49.2,23.4 50.2,24.4 51.5,24.4 C52.1,24.4 52.6,24.2 53,23.8 C53.5,23.4 53.8,22.7 53.8,22 C53.8,21.3 53.5,20.7 53,20.2 C52.6,20 52,19.8 51.5,19.8 Z" id="Shape"></path>
                <path d="M55.8,26.4 C54.8,26.4 53.8,26 53,25.4 C52.8,25.2 52.6,24.9 52.6,24.6 C52.6,24.3 52.7,24 53,23.8 C53.5,23.4 53.8,22.7 53.8,22 C53.8,21.3 53.5,20.7 53,20.2 C52.8,20 52.6,19.7 52.6,19.4 C52.6,19.1 52.7,18.8 53,18.6 C53.8,17.9 54.8,17.6 55.8,17.6 C58.2,17.6 60.1,19.5 60.1,21.9 C60.1,24.5 58.2,26.4 55.8,26.4 Z M55.2,24.3 C55.4,24.4 55.6,24.4 55.8,24.4 C57.1,24.4 58.1,23.4 58.1,22.1 C58.1,20.8 57.1,19.8 55.8,19.8 C55.6,19.8 55.4,19.8 55.2,19.9 C55.6,20.6 55.8,21.3 55.8,22.1 C55.8,22.9 55.6,23.7 55.2,24.3 Z" id="Shape"></path>
                <path d="M10.7,39.1 L6.5,39.1 C5.9,39.1 5.5,38.7 5.5,38.1 C5.5,37.5 5.9,37.1 6.5,37.1 L10.7,37.1 C11.3,37.1 11.7,37.5 11.7,38.1 C11.7,38.7 11.3,39.1 10.7,39.1 Z" id="Shape"></path>
                <path d="M17.3,44.1 L6.5,44.1 C5.9,44.1 5.5,43.7 5.5,43.1 C5.5,42.5 5.9,42.1 6.5,42.1 L17.3,42.1 C17.9,42.1 18.3,42.5 18.3,43.1 C18.3,43.7 17.8,44.1 17.3,44.1 Z" id="Shape"></path>
                <path d="M23.6,48.4 L6.5,48.4 C5.9,48.4 5.5,48 5.5,47.4 C5.5,46.8 5.9,46.4 6.5,46.4 L23.6,46.4 C24.2,46.4 24.6,46.8 24.6,47.4 C24.6,48 24.1,48.4 23.6,48.4 Z" id="Shape"></path>
                <path d="M20.6,39.1 L16.4,39.1 C15.8,39.1 15.4,38.7 15.4,38.1 C15.4,37.5 15.8,37.1 16.4,37.1 L20.6,37.1 C21.2,37.1 21.6,37.5 21.6,38.1 C21.6,38.7 21.2,39.1 20.6,39.1 Z" id="Shape"></path>
                <path d="M30.5,39.1 L26.3,39.1 C25.7,39.1 25.3,38.7 25.3,38.1 C25.3,37.5 25.7,37.1 26.3,37.1 L30.5,37.1 C31.1,37.1 31.5,37.5 31.5,38.1 C31.5,38.7 31.1,39.1 30.5,39.1 Z" id="Shape"></path>
                <path d="M40.5,39.1 L36.3,39.1 C35.7,39.1 35.3,38.7 35.3,38.1 C35.3,37.5 35.7,37.1 36.3,37.1 L40.5,37.1 C41.1,37.1 41.5,37.5 41.5,38.1 C41.5,38.7 41,39.1 40.5,39.1 Z" id="Shape"></path>
                <g id="Group" transform="translate(22.000000, 15.000000)">
                    <path d="M11.1,2.1 L1.6,2.1 C1,2.1 0.6,1.7 0.6,1.1 C0.6,0.5 1,0.1 1.6,0.1 L11.1,0.1 C11.7,0.1 12.1,0.5 12.1,1.1 C12.1,1.7 11.6,2.1 11.1,2.1 Z" id="Shape"></path>
                    <path d="M15.4,6.8 L1.6,6.8 C1,6.8 0.6,6.4 0.6,5.8 C0.6,5.2 1,4.8 1.6,4.8 L15.4,4.8 C16,4.8 16.4,5.2 16.4,5.8 C16.4,6.4 16,6.8 15.4,6.8 Z" id="Shape"></path>
                    <path d="M21,11.4 L1.6,11.4 C1,11.4 0.6,11 0.6,10.4 C0.6,9.8 1,9.4 1.6,9.4 L21,9.4 C21.6,9.4 22,9.8 22,10.4 C22,11 21.6,11.4 21,11.4 Z" id="Shape"></path>
                </g>
            </g>
        </g>
    </g>
</svg>