<?xml version="1.0" encoding="UTF-8"?>
<svg width="87px" height="73px" viewBox="0 0 87 73" version="1.1" xmlns="http://www.w3.org/2000/svg" xmlns:xlink="http://www.w3.org/1999/xlink">
    <g id="Page-1" stroke="none" stroke-width="1" fill="none" fill-rule="evenodd">
        <g id="Artboard">
            <g id="noun_798273_cc">
                <path d="M25.67,42.12 C23.5570299,42.1145046 21.8454954,40.4029701 21.84,38.29 L21.84,30.4 L3.84,33.58 C2.84152304,33.7530445 2.17090878,34.700846 2.34,35.7 L8.26,69.26 C8.43770206,70.2590159 9.39061367,70.9256066 10.39,70.75 L66.1,60.92 L66.1,60.92 C67.0990159,60.7422979 67.7656066,59.7893863 67.59,58.79 L64.65,42.12 L25.67,42.12 Z M7.16,48.79 L6.82,46.87 C6.64276939,45.8687014 6.87099989,44.8380242 7.45438409,44.0051542 C8.03776829,43.1722841 8.92841333,42.6055955 9.93,42.43 L14.5,41.62 C16.5839859,41.2567293 18.5692765,42.647327 18.94,44.73 L19.28,46.65 C19.4572306,47.6512986 19.2290001,48.6819758 18.6456159,49.5148458 C18.0622317,50.3477159 17.1715867,50.9144045 16.17,51.09 L11.6,51.9 C11.3788865,51.9398192 11.1546703,51.9598983 10.93,51.96 C9.0718858,51.9546286 7.48419581,50.6196214 7.16,48.79 L7.16,48.79 Z M55,51.48 C51.6896841,50.7846207 48.2388547,51.3669035 45.34,53.11 C43.7167156,54.1445942 41.8938896,54.8260245 39.99,55.11 C38.1032567,55.4728451 36.1613392,55.4353695 34.29,55 C32.6495027,54.61074 30.9447496,54.576645 29.29,54.9 C27.6282119,55.1387626 26.0362754,55.728495 24.62,56.63 C22.9967156,57.6645942 21.1738896,58.3460245 19.27,58.63 C18.3885639,58.7879021 17.4954277,58.8715291 16.6,58.88 C15.5905286,58.8683044 14.5850527,58.7509988 13.6,58.53 C11.9594637,58.1410473 10.2547763,58.1069535 8.6,58.43 L8.27,56.43 C10.1567942,56.06775 12.098587,56.1052232 13.97,56.54 C15.6105753,56.928646 17.315197,56.9627385 18.97,56.64 C20.6317881,56.4012374 22.2237246,55.811505 23.64,54.91 C25.2632844,53.8754058 27.0861104,53.1939755 28.99,52.91 C30.8767433,52.5471549 32.8186608,52.5846305 34.69,53.02 C36.3304973,53.40926 38.0352504,53.443355 39.69,53.12 C41.3515616,52.8803463 42.9433159,52.2906815 44.36,51.39 C45.983016,50.3548676 47.80596,49.6733932 49.71,49.39 C51.5967942,49.02775 53.538587,49.0652232 55.41,49.5 C57.0506529,49.8880343 58.7551439,49.9221241 60.41,49.6 L60.74,51.6 C58.8396664,51.9658587 56.8833826,51.9249608 55,51.48 Z" id="Shape"></path>
                <path d="M23.84,28 L23.84,38.29 C23.8454657,39.2984084 24.6615916,40.1145343 25.67,40.12 L82.25,40.12 C83.2584084,40.1145343 84.0745343,39.2984084 84.08,38.29 L84.08,18.37 L23.84,18.37 L23.84,28 Z" id="Shape"></path>
                <path d="M15.83,49.12 C16.8203559,48.9374109 17.4799373,47.9926051 17.31,47 L17,45.08 C16.8448676,44.2015793 16.0820134,43.5609504 15.19,43.56 L14.87,43.56 L10.3,44.37 C9.81893446,44.4528595 9.39091211,44.7244847 9.11110292,45.1244804 C8.83129372,45.5244761 8.72289176,46.0196856 8.81,46.5 L9.15,48.42 C9.32770206,49.4190159 10.2806137,50.0856066 11.28,49.91 L15.83,49.12 Z" id="Shape"></path>
                <rect id="Rectangle-path" x="23.84" y="10.37" width="60.25" height="6"></rect>
                <path d="M82.25,2.37 L25.67,2.37 C24.6615916,2.37546575 23.8454657,3.19159157 23.84,4.2 L23.84,8.37 L84.09,8.37 L84.09,4.21 C84.09,3.19379606 83.2662039,2.37 82.25,2.37 Z" id="Shape"></path>
                <path d="M11.61,51.9 L16.18,51.09 C17.1815867,50.9144045 18.0722317,50.3477159 18.6556159,49.5148458 C19.2390001,48.6819758 19.4672306,47.6512986 19.29,46.65 L18.95,44.73 C18.5792765,42.647327 16.5939859,41.2567293 14.51,41.62 L9.94,42.43 C8.93841333,42.6055955 8.04776829,43.1722841 7.46438409,44.0051542 C6.88099989,44.8380242 6.65276939,45.8687014 6.83,46.87 L7.17,48.79 C7.47691736,50.6355125 9.0691612,51.9912426 10.94,52 C11.1658706,51.9867327 11.3900994,51.9532657 11.61,51.9 L11.61,51.9 Z M9.14,48.44 L8.8,46.52 C8.71289176,46.0396856 8.82129372,45.5444761 9.10110292,45.1444804 C9.38091211,44.7444847 9.80893446,44.4728595 10.29,44.39 L14.86,43.58 L15.18,43.58 C16.0694858,43.5743541 16.8356531,44.2058107 17,45.08 L17.31,47 C17.4856066,47.9993863 16.8190159,48.9522979 15.82,49.13 L11.25,49.94 C10.250846,50.1090912 9.30304448,49.438477 9.13,48.44 L9.14,48.44 Z" id="Shape" fill="#000000" fill-rule="nonzero"></path>
                <path d="M82.25,0.37 L25.67,0.37 C23.5570299,0.375495399 21.8454954,2.08702986 21.84,4.2 L21.84,28.37 L3.48,31.6 C1.41563643,31.9711633 0.0310183277,33.9301086 0.37,36 L6.29,69.56 C6.61419581,71.3896214 8.2018858,72.7246286 10.06,72.73 C10.2846703,72.7298983 10.5088865,72.7098192 10.73,72.67 L66.45,62.84 L66.45,62.84 C68.532673,62.4692765 69.9232707,60.4839859 69.56,58.4 L66.68,42.12 L82.25,42.12 C84.3629701,42.1145046 86.0745046,40.4029701 86.08,38.29 L86.08,4.21 C86.0800072,2.09312567 84.3668671,0.375512694 82.25,0.37 L82.25,0.37 Z M67.59,58.8 C67.7656066,59.7993863 67.0990159,60.7522979 66.1,60.93 L66.1,60.93 L10.38,70.75 C9.38061367,70.9256066 8.42770206,70.2590159 8.25,69.26 L2.34,35.7 C2.16439338,34.7006137 2.83098414,33.7477021 3.83,33.57 L21.83,30.39 L21.83,38.28 C21.8354954,40.3929701 23.5470299,42.1045046 25.66,42.11 L64.66,42.11 L67.59,58.8 Z M84.09,38.29 C84.0845343,39.2984084 83.2684084,40.1145343 82.26,40.12 L25.67,40.12 C24.6615916,40.1145343 23.8454657,39.2984084 23.84,38.29 L23.84,18.37 L84.09,18.37 L84.09,38.29 Z M84.09,16.37 L23.84,16.37 L23.84,10.37 L84.09,10.37 L84.09,16.37 Z M84.09,8.37 L23.84,8.37 L23.84,4.21 C23.8454657,3.20159157 24.6615916,2.38546575 25.67,2.38 L82.25,2.38 C83.2584084,2.38546575 84.0745343,3.20159157 84.08,4.21 L84.09,8.37 Z" id="Shape" fill="#000000" fill-rule="nonzero"></path>
                <path d="M55.35,49.52 C53.478587,49.0852232 51.5367942,49.04775 49.65,49.41 C47.74596,49.6933932 45.923016,50.3748676 44.3,51.41 C42.8833159,52.3106815 41.2915616,52.9003463 39.63,53.14 C37.9752504,53.463355 36.2704973,53.42926 34.63,53.04 C32.7586608,52.6046305 30.8167433,52.5671549 28.93,52.93 C27.0261104,53.2139755 25.2032844,53.8954058 23.58,54.93 C22.1637246,55.831505 20.5717881,56.4212374 18.91,56.66 C17.255197,56.9827385 15.5505753,56.948646 13.91,56.56 C12.038587,56.1252232 10.0967942,56.08775 8.21,56.45 L8.54,58.45 C10.1947763,58.1269535 11.8994637,58.1610473 13.54,58.55 C14.5250527,58.7709988 15.5305286,58.8883044 16.54,58.9 C17.4354277,58.8915291 18.3285639,58.8079021 19.21,58.65 C21.1138896,58.3660245 22.9367156,57.6845942 24.56,56.65 C25.9762754,55.748495 27.5682119,55.1587626 29.23,54.92 C30.8847496,54.596645 32.5895027,54.63074 34.23,55.02 C36.1013392,55.4553695 38.0432567,55.4928451 39.93,55.13 C41.8338896,54.8460245 43.6567156,54.1645942 45.28,53.13 C48.1925867,51.3647599 51.6680467,50.7747898 55,51.48 C56.8712651,51.9159639 58.8133078,51.953442 60.7,51.59 L60.37,49.59 C58.7108153,49.9248544 56.9992029,49.9009872 55.35,49.52 Z" id="Shape" fill="#000000" fill-rule="nonzero"></path>
            </g>
        </g>
    </g>
</svg>