<?xml version="1.0" encoding="UTF-8"?>
<svg width="60px" height="60px" viewBox="0 0 60 60" version="1.1" xmlns="http://www.w3.org/2000/svg" xmlns:xlink="http://www.w3.org/1999/xlink">
    <g id="Page-1" stroke="none" stroke-width="1" fill="none" fill-rule="evenodd">
        <g id="Artboard" fill-rule="nonzero" fill="#000000">
            <g id="Group" transform="translate(3.000000, 13.000000)">
                <path d="M44,0.9 L0.1,1 L0.2,33.2 L44.1,33.2 L53.4,17.1 L44,0.9 Z M42.7,30.7 L2.7,30.8 L2.6,3.4 L42.6,3.3 L50.6,17 L42.7,30.7 Z" id="Shape"></path>
                <path d="M45.6,14.2 C44.9,13.5 44.1,13.2 43.1,13.2 C41.1,13.2 39.6,14.8 39.6,16.8 C39.6,17.7 40,18.6 40.6,19.3 C41.3,20 42.1,20.3 43.1,20.3 C45.1,20.3 46.7,18.7 46.7,16.8 C46.7,15.7 46.3,14.8 45.6,14.2 Z M43.1,17.8 C42.8,17.8 42.5,17.7 42.3,17.5 C42.1,17.3 42,17 42,16.7 L42,16.7 C42,16.1 42.5,15.6 43.1,15.6 L43.1,15.6 C43.4,15.6 43.7,15.7 43.9,15.9 C44.1,16.1 44.2,16.4 44.2,16.7 C44.3,17.3 43.8,17.8 43.1,17.8 Z" id="Shape"></path>
                <path d="M14,18 C16.3,18 18.1,16.2 18.1,13.9 L18.1,9.9 C18.1,7.6 16.3,5.8 14,5.8 C11.7,5.8 9.9,7.6 9.9,9.9 L9.9,13.9 C9.9,16.1 11.8,18 14,18 Z M12.3,9.9 C12.3,9 13.1,8.2 14,8.2 C14.9,8.2 15.7,9 15.7,9.9 L15.7,13.9 C15.7,14.8 14.9,15.6 14,15.6 C13.1,15.6 12.3,14.8 12.3,13.9 L12.3,9.9 Z" id="Shape"></path>
                <path d="M26.2,15.7 C23.9,15.7 22.1,17.5 22.1,19.8 L22.1,23.8 C22.1,26.1 23.9,27.9 26.2,27.9 C28.5,27.9 30.3,26.1 30.3,23.8 L30.3,19.8 C30.3,17.5 28.4,15.7 26.2,15.7 Z M27.9,23.7 C27.9,24.6 27.1,25.4 26.2,25.4 C25.3,25.4 24.5,24.6 24.5,23.7 L24.5,19.7 C24.5,18.8 25.3,18 26.2,18 C27.1,18 27.9,18.8 27.9,19.7 L27.9,23.7 Z" id="Shape"></path>
                <path d="M29.1,6.1 L9.3,25.9 C8.8,26.4 8.8,27.1 9.3,27.6 C9.5,27.8 9.8,28 10.1,28 C10.4,28 10.7,27.9 10.9,27.6 L30.8,7.7 C31.3,7.2 31.3,6.5 30.8,6 C30.3,5.5 29.6,5.6 29.1,6.1 Z" id="Shape"></path>
            </g>
        </g>
    </g>
</svg>