<?xml version="1.0" encoding="UTF-8"?>
<svg width="73px" height="89px" viewBox="0 0 73 89" version="1.1" xmlns="http://www.w3.org/2000/svg" xmlns:xlink="http://www.w3.org/1999/xlink">
    <!-- Generator: Sketch 42 (36781) - http://www.bohemiancoding.com/sketch -->
    <title>Artboard</title>
    <desc>Created with Sketch.</desc>
    <defs></defs>
    <g id="Page-1" stroke="none" stroke-width="1" fill="none" fill-rule="evenodd">
        <g id="Artboard" fill-rule="nonzero" fill="#000000">
            <g id="Group">
                <path d="M43.539,0 C54.673,0.198 62.524,6.04 66.861,16.156 L67.278,17.304 L67.377,17.459 L69.953,23.977 C76.957,41.696 68.327,66.804 50.71,80.183 C32.941,93.677 12.619,90.173 5.526,72.229 L2.949,65.711 L2.918,65.536 L2.434,64.407 C-4.57,46.689 4.06,21.58 21.677,8.201 C26.686,4.345 32.403,1.717 38.602,0.452 C40.221,0.122 41.893,0.151 43.539,0 Z M30.675,80.112 C25.338,80.601 27.401,80.649 24.499,80.497 L26.744,86.177 L27.518,86.246 C29.337,86.342 31.154,86.029 32.971,85.921 L30.675,80.112 Z M17.185,79.145 L19.114,84.023 C20.773,84.939 22.627,85.398 24.459,85.825 L22.294,80.348 C18.707,79.72 20.406,80.137 17.185,79.145 Z M38.228,77.782 C35.96,78.943 37.735,78.097 32.605,79.564 L34.938,85.466 C36.881,85.133 38.807,84.604 40.579,83.729 L38.228,77.782 Z M45.219,74.028 C42.954,75.6 44.606,74.516 40.013,76.868 L42.376,82.843 C45.63,81.238 43.888,82.178 47.558,79.946 L45.219,74.028 Z M8.403,73.629 C10.204,77.315 13.049,80.152 16.361,82.489 L14.61,78.061 C12.313,77.002 10.124,75.492 8.403,73.629 Z M51.667,68.901 C48.728,71.535 50.093,70.4 47.618,72.362 L46.903,72.858 L49.242,78.775 L49.502,78.594 C53.081,75.636 51.658,77.015 53.932,74.632 L51.667,68.901 Z M44.868,2.018 C36.584,1.775 29.517,5.177 22.885,9.791 C5.945,22.655 -2.366,46.835 4.29,63.674 C10.857,80.286 29.622,83.522 46.411,70.772 C63.35,57.908 71.661,33.728 65.005,16.89 C62.254,10.066 56.634,4.118 49.19,2.615 C47.764,2.326 46.308,2.217 44.868,2.018 Z M57.535,62.308 C55.59,65.068 56.927,63.299 53.202,67.356 L55.45,73.042 C58.408,69.78 56.976,71.504 59.728,67.857 L57.535,62.308 Z M62.779,54.065 C60.67,58.197 61.924,56.079 58.91,60.356 L61.137,65.991 C62.602,63.948 63.9,61.788 64.999,59.529 L62.779,54.065 Z M66.309,45.916 C64.769,50.411 65.624,48.49 63.952,51.767 L63.993,51.75 L66.173,57.116 C67.778,53.346 67.034,55.352 68.351,51.08 L66.309,45.916 Z M68.332,38.254 C67.573,42.384 68.051,40.835 67.306,43.008 L69.214,47.834 C69.981,43.84 69.786,45.623 69.979,42.507 L68.332,38.254 Z M69.169,28.164 C69.049,34.42 69.423,32.321 69.012,34.558 L69.092,34.687 L69.429,35.557 L70.274,37.741 C70.345,36.589 70.276,37.727 70.207,34.321 C70.089,32.229 69.66,30.192 69.169,28.164 Z" id="Shape"></path>
                <path d="M41.394,11.019 C43.777,10.862 45.947,11.709 48.08,12.638 C56.557,18.314 55.578,29.517 51.638,37.657 L51.63,37.718 L46.887,53.266 C46.699,53.882 45.987,54.162 45.43,53.84 L43.121,52.507 L41.954,54.529 L41.866,54.628 C39.635,58.047 35.69,60.631 31.525,59.151 L27.799,65.605 C27.522,66.084 26.911,66.248 26.432,65.971 L9.5,56.195 C9.022,55.919 8.858,55.308 9.134,54.829 L20.269,35.544 C20.373,31.081 22.019,26.917 23.992,22.984 C28.338,16.047 32.331,12.811 40.297,11.084 L41.394,11.019 Z M41.722,13.071 C34.553,13.519 29.636,18.266 25.742,23.952 C23.524,28.145 22.334,32.097 22.252,35.861 C22.249,36.029 22.203,36.194 22.119,36.339 L11.366,54.963 L26.566,63.739 L30.245,57.369 C30.534,56.867 31.188,56.716 31.669,57.039 L31.839,57.153 C35.334,58.571 38.281,56.218 40.222,53.499 L40.269,53.449 L41.889,50.641 C42.165,50.163 42.777,49.999 43.255,50.275 L45.341,51.479 L49.657,37.333 C49.616,37.19 49.65,37.32 49.763,36.943 C54.531,27.929 53.245,18.127 47.06,14.358 C44.987,13.348 46.261,13.863 43.142,13.076 L41.722,13.071 Z" id="Shape"></path>
            </g>
        </g>
    </g>
</svg>