<?xml version="1.0" encoding="UTF-8"?>
<svg width="90px" height="90px" viewBox="0 0 90 90" version="1.1" xmlns="http://www.w3.org/2000/svg" xmlns:xlink="http://www.w3.org/1999/xlink">
    <g id="Page-1" stroke="none" stroke-width="1" fill="none" fill-rule="evenodd">
        <g id="Artboard" fill-rule="nonzero" fill="#000000">
            <g id="Group" transform="translate(0.000000, 3.000000)">
                <path d="M17.462,52.143 C17.462,69.375 30.87,83.394 47.35,83.394 C48.845,83.394 50.313,83.275 51.75,83.053 L60.113,83.053 C76.522,83.053 89.872,69.095 89.872,51.937 C89.872,34.779 76.522,20.821 60.113,20.821 L48.566,20.821 L48.566,20.925 C48.162,20.908 47.758,20.893 47.35,20.893 C30.87,20.892 17.462,34.911 17.462,52.143 Z M60.806,80.034 C62.679,79.042 64.439,77.852 66.061,76.487 L73.133,76.487 C69.466,78.642 65.271,79.913 60.806,80.034 Z M77.274,73.487 L69.152,73.487 C70.826,71.619 72.283,69.539 73.482,67.287 L82.514,67.287 C81.064,69.615 79.297,71.705 77.274,73.487 Z M84.144,64.287 L74.888,64.287 C75.686,62.316 76.29,60.239 76.688,58.087 L86.218,58.087 C85.755,60.258 85.056,62.336 84.144,64.287 Z M86.871,51.937 C86.871,53.002 86.809,54.052 86.699,55.087 L77.101,55.087 C77.188,54.117 77.238,53.136 77.238,52.143 C77.238,51.044 77.182,49.958 77.075,48.887 L86.711,48.887 C86.814,49.889 86.871,50.906 86.871,51.937 Z M86.24,45.887 L76.635,45.887 C76.214,43.731 75.576,41.658 74.754,39.687 L84.194,39.687 C85.097,41.638 85.786,43.717 86.24,45.887 Z M82.576,36.687 L73.31,36.687 C72.076,34.431 70.583,32.351 68.87,30.49 L77.388,30.49 C79.393,32.275 81.142,34.363 82.576,36.687 Z M60.112,23.82 C64.908,23.82 69.409,25.159 73.305,27.49 L65.685,27.49 C63.923,26.054 62.006,24.819 59.962,23.82 L60.112,23.82 Z M47.35,23.892 C62.176,23.892 74.238,36.565 74.238,52.143 C74.238,67.721 62.176,80.394 47.35,80.394 C32.524,80.394 20.462,67.721 20.462,52.143 C20.462,36.565 32.524,23.892 47.35,23.892 Z" id="Shape"></path>
                <path d="M47.35,72.879 C58.298,72.879 67.205,63.576 67.205,52.142 C67.205,40.708 58.298,31.406 47.35,31.406 C36.402,31.406 27.495,40.709 27.495,52.143 C27.495,63.577 36.401,72.879 47.35,72.879 Z M47.35,34.406 C56.644,34.406 64.205,42.363 64.205,52.143 C64.205,61.923 56.644,69.879 47.35,69.879 C38.056,69.879 30.495,61.922 30.495,52.142 C30.495,42.362 38.056,34.406 47.35,34.406 Z" id="Shape"></path>
                <path d="M20.448,27.318 L20.448,27.326 L20.448,27.335 C20.446,27.407 20.441,27.479 20.436,27.551 C20.436,27.558 20.435,27.566 20.435,27.573 L23.523,27.573 C23.522,27.564 23.522,27.555 23.521,27.547 C23.516,27.477 23.511,27.406 23.509,27.336 C23.769,21.125 28.763,16.256 34.926,16.134 L34.926,12.047 C28.763,11.925 23.769,7.056 23.509,0.862 C23.511,0.774 23.516,0.703 23.521,0.633 C23.521,0.624 23.522,0.616 23.523,0.607 L20.435,0.607 C20.435,0.614 20.436,0.622 20.436,0.629 C20.441,0.701 20.446,0.773 20.448,0.845 C20.188,7.056 15.194,11.925 9.031,12.047 L9.031,16.134 C15.194,16.255 20.188,21.124 20.448,27.318 Z M14.185,14.09 L14.682,13.872 C17.693,12.554 20.209,10.238 21.769,7.351 L21.978,6.964 L22.187,7.351 C23.747,10.238 26.264,12.555 29.274,13.872 L29.771,14.09 L29.274,14.308 C26.264,15.626 23.747,17.942 22.187,20.829 L21.978,21.216 L21.769,20.829 C20.209,17.942 17.692,15.626 14.682,14.308 L14.185,14.09 Z" id="Shape"></path>
                <path d="M9.896,42.606 C9.896,42.543 9.892,42.481 9.888,42.419 C9.885,42.377 9.882,42.336 9.881,42.304 C10.042,38.466 13.174,35.459 17.011,35.459 L17.136,35.459 L17.136,32.313 L17.011,32.313 C13.174,32.313 10.042,29.306 9.881,25.478 C9.882,25.436 9.885,25.395 9.888,25.354 C9.892,25.292 9.897,25.229 9.897,25.166 L9.866,25.041 L7.37,25.041 L7.37,25.166 C7.37,25.228 7.374,25.289 7.378,25.349 C7.381,25.391 7.384,25.433 7.385,25.467 C7.224,29.305 4.092,32.312 0.255,32.312 L0.129,32.312 L0.129,35.458 L0.254,35.458 C4.09,35.458 7.221,38.462 7.384,42.298 C7.383,42.34 7.38,42.38 7.377,42.421 C7.373,42.482 7.369,42.543 7.369,42.604 L7.4,42.729 L9.897,42.729 L9.897,42.606 L9.896,42.606 Z M4.358,33.887 C6.147,33.041 7.651,31.65 8.632,29.934 C9.612,31.65 11.116,33.041 12.906,33.887 C11.116,34.733 9.613,36.124 8.632,37.841 C7.651,36.124 6.147,34.733 4.358,33.887 Z" id="Shape"></path>
            </g>
        </g>
    </g>
</svg>